<?xml version="1.0" encoding="UTF-8" standalone="no"?><svg xmlns="http://www.w3.org/2000/svg" xmlns:xlink="http://www.w3.org/1999/xlink" contentScriptType="application/ecmascript" contentStyleType="text/css" height="514px" preserveAspectRatio="none" style="width:1072px;height:514px;" version="1.1" viewBox="0 0 1072 514" width="1072px" zoomAndPan="magnify"><defs><filter height="300%" id="f9jxvgov2qbgj" width="300%" x="-1" y="-1"><feGaussianBlur result="blurOut" stdDeviation="2.0"/><feColorMatrix in="blurOut" result="blurOut2" type="matrix" values="0 0 0 0 0 0 0 0 0 0 0 0 0 0 0 0 0 0 .4 0"/><feOffset dx="4.0" dy="4.0" in="blurOut2" result="blurOut3"/><feBlend in="SourceGraphic" in2="blurOut3" mode="normal"/></filter></defs><g><!--entity DB--><ellipse cx="281.5" cy="34.2969" fill="#FEFECE" filter="url(#f9jxvgov2qbgj)" rx="8" ry="8" style="stroke: #A80036; stroke-width: 2.0;"/><path d="M281.5,42.2969 L281.5,69.2969 M268.5,50.2969 L294.5,50.2969 M281.5,69.2969 L268.5,84.2969 M281.5,69.2969 L294.5,84.2969 " fill="none" filter="url(#f9jxvgov2qbgj)" style="stroke: #A80036; stroke-width: 2.0;"/><text fill="#000000" font-family="sans-serif" font-size="14" lengthAdjust="spacingAndGlyphs" textLength="102" x="230.5" y="104.292">Main Database</text><text fill="#000000" font-family="sans-serif" font-size="14" font-style="italic" lengthAdjust="spacingAndGlyphs" textLength="94" x="234.5" y="20.9951">«Application»</text><path d="M6,22.5 L6,93.0313 A0,0 0 0 0 6,93.0313 L195,93.0313 A0,0 0 0 0 195,93.0313 L195,62 L230.284,58 L195,54 L195,32.5 L185,22.5 L6,22.5 A0,0 0 0 0 6,22.5 " fill="#FBFB77" filter="url(#f9jxvgov2qbgj)" style="stroke: #A80036; stroke-width: 1.0;"/><path d="M185,22.5 L185,32.5 L195,32.5 L185,22.5 " fill="#FBFB77" style="stroke: #A80036; stroke-width: 1.0;"/><text fill="#000000" font-family="sans-serif" font-size="13" lengthAdjust="spacingAndGlyphs" textLength="62" x="12" y="39.5669">This actor</text><text fill="#000000" font-family="sans-serif" font-size="13" lengthAdjust="spacingAndGlyphs" textLength="168" x="12" y="54.6997">has a "name with spaces",</text><text fill="#000000" font-family="sans-serif" font-size="13" lengthAdjust="spacingAndGlyphs" textLength="49" x="12" y="69.8325">an alias</text><text fill="#000000" font-family="sans-serif" font-size="13" lengthAdjust="spacingAndGlyphs" textLength="109" x="12" y="84.9653">and a stereotype</text><!--entity User--><ellipse cx="421.5" cy="34.2969" fill="#FEFECE" filter="url(#f9jxvgov2qbgj)" rx="8" ry="8" style="stroke: #A80036; stroke-width: 2.0;"/><path d="M421.5,42.2969 L421.5,69.2969 M408.5,50.2969 L434.5,50.2969 M421.5,69.2969 L408.5,84.2969 M421.5,69.2969 L434.5,84.2969 " fill="none" filter="url(#f9jxvgov2qbgj)" style="stroke: #A80036; stroke-width: 2.0;"/><text fill="#000000" font-family="sans-serif" font-size="14" lengthAdjust="spacingAndGlyphs" textLength="32" x="405.5" y="104.292">User</text><text fill="#000000" font-family="sans-serif" font-size="14" font-style="italic" lengthAdjust="spacingAndGlyphs" textLength="68" x="387.5" y="20.9951">«Human»</text><!--entity SpecialisedUser--><ellipse cx="441.5" cy="287" fill="#FEFECE" filter="url(#f9jxvgov2qbgj)" rx="8" ry="8" style="stroke: #A80036; stroke-width: 2.0;"/><path d="M441.5,295 L441.5,322 M428.5,303 L454.5,303 M441.5,322 L428.5,337 M441.5,322 L454.5,337 " fill="none" filter="url(#f9jxvgov2qbgj)" style="stroke: #A80036; stroke-width: 2.0;"/><text fill="#000000" font-family="sans-serif" font-size="14" lengthAdjust="spacingAndGlyphs" textLength="110" x="386.5" y="356.9951">SpecialisedUser</text><!--entity Administrator--><ellipse cx="577.5" cy="287" fill="#FEFECE" filter="url(#f9jxvgov2qbgj)" rx="8" ry="8" style="stroke: #A80036; stroke-width: 2.0;"/><path d="M577.5,295 L577.5,322 M564.5,303 L590.5,303 M577.5,322 L564.5,337 M577.5,322 L590.5,337 " fill="none" filter="url(#f9jxvgov2qbgj)" style="stroke: #A80036; stroke-width: 2.0;"/><text fill="#000000" font-family="sans-serif" font-size="14" lengthAdjust="spacingAndGlyphs" textLength="91" x="532" y="356.9951">Administrator</text><ellipse cx="281.4418" cy="192.7271" fill="#FEFECE" filter="url(#f9jxvgov2qbgj)" rx="86.9418" ry="23.7271" style="stroke: #A80036; stroke-width: 1.5;"/><text fill="#000000" font-family="sans-serif" font-size="14" font-style="italic" lengthAdjust="spacingAndGlyphs" textLength="50" x="256.4418" y="185.7375">«Main»</text><text fill="#000000" font-family="sans-serif" font-size="14" lengthAdjust="spacingAndGlyphs" textLength="132" x="215.4418" y="202.0343">Use the application</text><ellipse cx="366.6626" cy="462.5325" fill="#FEFECE" filter="url(#f9jxvgov2qbgj)" rx="98.1626" ry="22.0325" style="stroke: #A80036; stroke-width: 1.5;"/><text fill="#000000" font-family="sans-serif" font-size="14" lengthAdjust="spacingAndGlyphs" textLength="172" x="280.6626" y="467.181">Configure the application</text><path d="M475,172.5 L475,212.7656 L620,212.7656 L620,182.5 L610,172.5 L475,172.5 " fill="#FBFB77" filter="url(#f9jxvgov2qbgj)" style="stroke: #A80036; stroke-width: 1.0;"/><path d="M610,172.5 L610,182.5 L620,182.5 L610,172.5 " fill="#FBFB77" style="stroke: #A80036; stroke-width: 1.0;"/><text fill="#000000" font-family="sans-serif" font-size="13" lengthAdjust="spacingAndGlyphs" textLength="124" x="481" y="189.5669">This note applies to</text><text fill="#000000" font-family="sans-serif" font-size="13" lengthAdjust="spacingAndGlyphs" textLength="77" x="481" y="204.6997">both actors.</text><!--entity AnotherActor--><ellipse cx="744.5" cy="26.5" fill="#FEFECE" filter="url(#f9jxvgov2qbgj)" rx="8" ry="8" style="stroke: #A80036; stroke-width: 2.0;"/><path d="M744.5,34.5 L744.5,61.5 M731.5,42.5 L757.5,42.5 M744.5,61.5 L731.5,76.5 M744.5,61.5 L757.5,76.5 " fill="none" filter="url(#f9jxvgov2qbgj)" style="stroke: #A80036; stroke-width: 2.0;"/><text fill="#000000" font-family="sans-serif" font-size="14" lengthAdjust="spacingAndGlyphs" textLength="91" x="699" y="96.4951">AnotherActor</text><ellipse cx="744.2894" cy="318.2579" fill="#FEFECE" filter="url(#f9jxvgov2qbgj)" rx="74.2894" ry="17.2579" style="stroke: #A80036; stroke-width: 1.5;"/><text fill="#000000" font-family="sans-serif" font-size="14" lengthAdjust="spacingAndGlyphs" textLength="117" x="685.7894" y="322.9063">AnotherUseCase</text><!--entity ThirdActor--><ellipse cx="872.5" cy="26.5" fill="#FEFECE" filter="url(#f9jxvgov2qbgj)" rx="8" ry="8" style="stroke: #A80036; stroke-width: 2.0;"/><path d="M872.5,34.5 L872.5,61.5 M859.5,42.5 L885.5,42.5 M872.5,61.5 L859.5,76.5 M872.5,61.5 L885.5,76.5 " fill="none" filter="url(#f9jxvgov2qbgj)" style="stroke: #A80036; stroke-width: 2.0;"/><text fill="#000000" font-family="sans-serif" font-size="14" lengthAdjust="spacingAndGlyphs" textLength="71" x="837" y="96.4951">ThirdActor</text><ellipse cx="872.7401" cy="462.5236" fill="#FEFECE" filter="url(#f9jxvgov2qbgj)" rx="56.7401" ry="14.5236" style="stroke: #A80036; stroke-width: 1.5;"/><text fill="#000000" font-family="sans-serif" font-size="14" lengthAdjust="spacingAndGlyphs" textLength="76" x="834.7401" y="467.1721">LowerCase</text><ellipse cx="1004.4472" cy="58.0236" fill="#FEFECE" filter="url(#f9jxvgov2qbgj)" rx="57.4472" ry="14.5236" style="stroke: #A80036; stroke-width: 1.5;"/><text fill="#000000" font-family="sans-serif" font-size="14" lengthAdjust="spacingAndGlyphs" textLength="77" x="965.9472" y="62.6721">UpperCase</text><!--entity FourthActor--><ellipse cx="1004.5" cy="431" fill="#FEFECE" filter="url(#f9jxvgov2qbgj)" rx="8" ry="8" style="stroke: #A80036; stroke-width: 2.0;"/><path d="M1004.5,439 L1004.5,466 M991.5,447 L1017.5,447 M1004.5,466 L991.5,481 M1004.5,466 L1017.5,481 " fill="none" filter="url(#f9jxvgov2qbgj)" style="stroke: #A80036; stroke-width: 2.0;"/><text fill="#000000" font-family="sans-serif" font-size="14" lengthAdjust="spacingAndGlyphs" textLength="81" x="964" y="500.9951">FourthActor</text><!--link User to SpecialisedUser--><path d="M426.861,128.293 C430.537,175.8 435.286,237.188 438.362,276.947 " fill="none" id="User-SpecialisedUser" style="stroke: #A80036; stroke-width: 1.0;"/><polygon fill="none" points="419.873,128.711,425.309,108.23,433.831,127.631,419.873,128.711" style="stroke: #A80036; stroke-width: 1.0;"/><!--link User to Administrator--><path d="M475.12,69.617 C526.852,83.021 602.34,111.638 637.5,169 C658.425,203.138 636.825,245.857 613.92,276.702 " fill="none" id="User-Administrator" style="stroke: #A80036; stroke-width: 1.0;"/><polygon fill="none" points="473.432,76.412,455.591,64.98,476.667,62.79,473.432,76.412" style="stroke: #A80036; stroke-width: 1.0;"/><!--link Use to Config--><path d="M280.408,216.074 C279.57,248.817 280.811,310.935 298.5,360 C308.799,388.568 328.847,416.9286 344.518,436.3785 " fill="none" id="Use-Config" style="stroke: #A80036; stroke-width: 1.0; stroke-dasharray: 7.0,7.0;"/><polygon fill="#A80036" points="347.993,440.6349,345.4015,431.1331,344.8316,436.7612,339.2035,436.1913,347.993,440.6349" style="stroke: #A80036; stroke-width: 1.0;"/><text fill="#000000" font-family="sans-serif" font-size="13" lengthAdjust="spacingAndGlyphs" textLength="68" x="299.5" y="323.0669">«includes»</text><!--link User to Use--><path d="M387.252,91.413 C362.918,114.444 330.703,144.933 308.251,166.182 " fill="none" id="User-Use" style="stroke: #A80036; stroke-width: 1.0;"/><polygon fill="#A80036" points="304.455,169.774,313.7411,166.4924,308.0863,166.3369,308.2418,160.6822,304.455,169.774" style="stroke: #A80036; stroke-width: 1.0;"/><!--link DB to Use--><path d="M281.5,108.338 C281.5,126.98 281.5,147.536 281.5,163.547 " fill="none" id="DB-Use" style="stroke: #A80036; stroke-width: 1.0;"/><polygon fill="#A80036" points="281.5,168.793,285.5,159.793,281.5,163.793,277.5,159.793,281.5,168.793" style="stroke: #A80036; stroke-width: 1.0;"/><!--link Administrator to Config--><path d="M531.976,350.137 C492.511,376.697 436.279,414.54 400.591,438.5572 " fill="none" id="Administrator-Config" style="stroke: #A80036; stroke-width: 1.0;"/><polygon fill="#A80036" points="396.343,441.4158,406.0426,439.7074,400.4906,438.6233,401.5746,433.0713,396.343,441.4158" style="stroke: #A80036; stroke-width: 1.0;"/><!--link MyNote to Administrator--><path d="M552.122,212.603 C556.247,229.655 562.427,255.198 567.655,276.809 " fill="none" id="MyNote-Administrator" style="stroke: #A80036; stroke-width: 1.0; stroke-dasharray: 7.0,7.0;"/><!--link MyNote to SpecialisedUser--><path d="M531.17,212.603 C516.593,229.655 494.758,255.198 476.285,276.809 " fill="none" id="MyNote-SpecialisedUser" style="stroke: #A80036; stroke-width: 1.0; stroke-dasharray: 7.0,7.0;"/><!--link AnotherActor to AnotherUseCase--><path d="M744.5,99.675 C744.5,155.033 744.5,252.161 744.5,295.519 " fill="none" id="AnotherActor-AnotherUseCase" style="stroke: #A80036; stroke-width: 1.0;"/><polygon fill="#A80036" points="744.5,300.779,748.5,291.779,744.5,295.779,740.5,291.779,744.5,300.779" style="stroke: #A80036; stroke-width: 1.0;"/><!--link ThirdActor to LowerCase--><path d="M872.5,99.809 C872.5,185.364 872.5,380.696 872.5,442.43 " fill="none" id="ThirdActor-LowerCase" style="stroke: #A80036; stroke-width: 1.0;"/><polygon fill="#A80036" points="872.5,447.6478,876.5,438.6478,872.5,442.6478,868.5,438.6478,872.5,447.6478" style="stroke: #A80036; stroke-width: 1.0;"/><!--link UpperCase to FourthActor--><path d="M1004.5,78.075 C1004.5,139.839 1004.5,335.293 1004.5,420.7925 " fill="none" id="UpperCase-FourthActor" style="stroke: #A80036; stroke-width: 1.0;"/><polygon fill="#A80036" points="1004.5,72.855,1000.5,81.855,1004.5,77.855,1008.5,81.855,1004.5,72.855" style="stroke: #A80036; stroke-width: 1.0;"/><!--
@startuml
actor "Main Database" as DB << Application >>

note left of DB
  This actor 
  has a "name with spaces",
  an alias
  and a stereotype 
end note

actor User << Human >>
actor SpecialisedUser
actor Administrator

User <|- - - SpecialisedUser
User <|- - - Administrator

usecase (Use the application) as (Use) << Main >>
usecase (Configure the application) as (Config)
Use ..> Config : <<includes>>

User - -> Use
DB - -> Use

Administrator - -> Config 

note "This note applies to\nboth actors." as MyNote
MyNote .. Administrator
MyNote .. SpecialisedUser

AnotherActor - - -> (AnotherUseCase)

ThirdActor - - - -> (LowerCase)

(UpperCase) <- - - - FourthActor
@enduml

PlantUML version 1.2018.04beta7(Unknown compile time)
(GPL source distribution)
Java Runtime: Java(TM) SE Runtime Environment
JVM: Java HotSpot(TM) 64-Bit Server VM
Java Version: 1.7.0_25-b15
Operating System: Linux
Default Encoding: UTF-8
Language: en
Country: US
--></g></svg>